<?xml version="1.0" encoding="UTF-8"?>
<svg id="Layer_1" data-name="Layer 1" xmlns="http://www.w3.org/2000/svg" viewBox="0 0 300.67 300.67">
  <defs>
    <style>
      .cls-1 {
        fill: #f15927;
      }

      .cls-2 {
        fill: #000201;
      }
    </style>
  </defs>
  <rect class="cls-2" x="71.21" y="71.21" width="158.25" height="158.25" rx="41.17" ry="41.17"/>
  <g>
    <path class="cls-1" d="M113.41,182.56l3.58,3.69c-1.26-1.16-2.45-2.39-3.58-3.69Z"/>
    <path class="cls-1" d="M129.15,144.74c1.59-.3,3.26-.58,5-.83.64-.09,1.17.48,1.04,1.12-2.3,11.08-13.47,27.07-21.08,36.65-.37.46-1.06.46-1.44.01-6.3-7.54-10.36-17.01-11.21-27.38-.03-.39.18-.75.53-.91,5.48-2.57,14.95-6.35,27.16-8.65Z"/>
    <path class="cls-1" d="M127.98,139.76c-10.75,2.06-19.37,5.15-25.24,7.68-.64.28-1.35-.23-1.29-.93.91-11.84,6.02-22.51,13.84-30.49.33-.34.88-.37,1.25-.06,6.08,4.94,14.44,12.82,18.32,21.34.03.06.05.11.07.17.24.56-.12,1.2-.73,1.28-2.18.3-4.26.64-6.22,1.02Z"/>
    <path class="cls-1" d="M147.79,102.31v34.43c0,.5-.4.91-.9.93-1.95.07-3.85.18-5.69.32-.46.04-.86-.26-.97-.71-.18-.73-.42-1.44-.72-2.11-4.12-9.05-12.45-17.18-18.84-22.47-.46-.38-.44-1.09.04-1.46,7.36-5.6,16.33-9.16,26.1-9.86.53-.04.99.39.99.93Z"/>
    <path class="cls-1" d="M161.17,135.17c-.4.87-.68,1.8-.87,2.78h-.01c-2.21-.17-4.37-.28-6.49-.32-.51-.01-.91-.42-.91-.93v-34.39c0-.54.45-.96.99-.93,9.77.7,18.74,4.26,26.1,9.85.48.36.5,1.07.04,1.46-6.38,5.3-14.73,13.43-18.85,22.48Z"/>
    <path class="cls-1" d="M197.91,146.84c-11.01-4.47-21.56-7.01-31.34-8.25-.61-.08-.99-.72-.74-1.28,0,0,0,0,0-.01,3.87-8.52,12.24-16.4,18.32-21.34.37-.3.91-.28,1.25.06,7.69,7.85,12.76,18.29,13.8,29.88.06.69-.64,1.2-1.28.94Z"/>
    <path class="cls-1" d="M147.79,143.71v54.59c0,.54-.45.96-.99.93-11.17-.8-21.31-5.34-29.17-12.38-.37-.33-.41-.89-.1-1.27,6.89-8.53,21.12-27.62,22.93-41.67.06-.43.41-.76.84-.8,1.79-.15,3.63-.25,5.53-.32.52-.02.96.41.96.93Z"/>
    <path class="cls-1" d="M147.79,199.28h5.11c-.85.04-1.7.06-2.55.06s-1.71-.02-2.55-.06Z"/>
    <path class="cls-1" d="M183.04,186.85c-7.86,7.03-17.99,11.57-29.16,12.37-.53.04-.99-.39-.99-.93v-54.63c0-.52.43-.94.94-.93,1.8.04,3.63.13,5.5.25.44.03.8.37.86.8,1.75,14.06,16.04,33.23,22.94,41.78.31.38.27.94-.1,1.27Z"/>
    <path class="cls-1" d="M183.69,186.26l3.59-3.7c-1.12,1.3-2.32,2.53-3.59,3.7Z"/>
    <path class="cls-1" d="M199.27,153.62c-.71,10.64-4.82,20.36-11.26,28.07-.38.45-1.08.45-1.44-.01-7.67-9.64-18.92-25.77-21.12-36.86-.12-.62.41-1.17,1.03-1.09,10.03,1.32,20.89,4.07,32.23,8.98.36.16.59.52.56.91Z"/>
  </g>
</svg>