<?xml version="1.0" encoding="UTF-8"?>
<svg id="Layer_1" data-name="Layer 1" xmlns="http://www.w3.org/2000/svg" viewBox="0 0 1366 768">
  <defs>
    <style>
      .cls-1 {
        fill: #f15927;
      }

      .cls-2 {
        letter-spacing: -.04em;
      }

      .cls-3 {
        letter-spacing: -.04em;
      }

      .cls-4 {
        letter-spacing: .07em;
      }

      .cls-5 {
        letter-spacing: .09em;
      }

      .cls-6 {
        letter-spacing: -.04em;
      }

      .cls-7 {
        letter-spacing: .1em;
      }

      .cls-8 {
        letter-spacing: 0em;
      }

      .cls-9 {
        letter-spacing: -.04em;
      }

      .cls-10 {
        letter-spacing: -.04em;
      }

      .cls-11 {
        font-family: Eurostile-Bla, Eurostile;
        font-size: 120.65px;
      }

      .cls-12 {
        letter-spacing: -.04em;
      }

      .cls-13 {
        font-family: NHaasGroteskDSPro-75Bd, 'Neue Haas Grotesk Display Pro';
        font-size: 36.53px;
      }

      .cls-14 {
        fill: #000201;
      }

      .cls-15 {
        fill: #fefefe;
      }

      .cls-16 {
        letter-spacing: .1em;
      }

      .cls-17 {
        letter-spacing: .11em;
      }
    </style>
  </defs>
  <g>
    <text class="cls-11" transform="translate(310.43 605.82)"><tspan class="cls-3" x="0" y="0">C</tspan><tspan class="cls-6" x="73.23" y="0">R</tspan><tspan class="cls-12" x="148.28" y="0">O</tspan><tspan class="cls-3" x="226.1" y="0">S</tspan><tspan class="cls-2" x="298.13" y="0">S</tspan><tspan class="cls-9" x="370.04" y="0">C</tspan><tspan class="cls-10" x="443.52" y="0">OU</tspan><tspan class="cls-8" x="599.64" y="0">R</tspan><tspan class="cls-3" x="679.63" y="0">T</tspan></text>
    <text class="cls-13" transform="translate(568.86 665.35)"><tspan class="cls-16" x="0" y="0">G</tspan><tspan class="cls-4" x="30.58" y="0">O</tspan><tspan class="cls-7" x="60.42" y="0">T NE</tspan><tspan class="cls-5" x="152.56" y="0">X</tspan><tspan class="cls-17" x="181.09" y="0">T</tspan><tspan class="cls-7" x="208.09" y="0">?</tspan></text>
  </g>
  <g>
    <path class="cls-14" d="M687.83,485.97c-28.36.99-55.52-7.04-78.5-23.19-15.39-10.81-28.32-24.74-38.04-40.83-4.07-6.74-7.17-13.55-10.08-20.89-4.35-13.04-7.7-26.76-7.71-40.71l-.09-263.8c9.13-2.49,18.11-4.3,27.26-6.09,24.64-4.82,49.38-7.92,74.48-9.36,18.64-.94,37.33-1.11,56-.04,28.52,1.64,56.63,5.42,84.48,11.34l16.94,4.03-.04,264.04c0,9.9-1.91,19.64-3.95,29.2l-5.29,15.39c-19.69,46.56-64.19,79.12-115.48,80.91Z"/>
    <path class="cls-15" d="M745,217.8l18.2,9.46v-32.12s24.37,10.98,24.37,10.98v75.48s-10.55-12.34-10.55-12.34c-6.53-6.85-13.57-12.85-21.39-18.22-17.38-11.51-35.89-18.77-56.7-21.38l-.03-124.41c13.8.54,27.04,1.49,40.47,2.9l32.47,4.85,15.76,3.26-.07,48.55-24.32-10.89-.07-17.96c-13.35-2.02-26.29-3.76-39.76-4.99v79.04c7.58,2.02,14.58,4.47,21.6,7.8Z"/>
    <path class="cls-15" d="M616.91,219.76c8.3-4.09,16.78-7.36,25.83-9.69l-.05-79.17-39.64,5.1-.05,17.94-24.6,10.96v-48.61c8.25-1.85,16.15-3.36,24.3-4.61l17.2-2.54c15.74-1.93,31.3-3.18,47.32-3.83l-.03,124.29c-16.14,2.27-31.72,7.12-46.09,14.92-16.78,9.3-31.06,21.82-42.68,37.41l.02-75.83,24.55-10.98v32.07s13.91-7.45,13.91-7.45Z"/>
    <g>
      <path class="cls-1" d="M603.13,427.41l7.73,7.98c-2.72-2.52-5.3-5.17-7.73-7.98Z"/>
      <path class="cls-1" d="M637.19,345.61c4.27-.82,8.8-1.55,13.57-2.17-3.67,24.73-30.52,62.72-47.62,83.96-14.83-16.93-24.31-38.63-25.95-62.48,11.62-5.55,32.64-14.14,60-19.32Z"/>
      <path class="cls-1" d="M634.64,334.83c-25.15,4.82-44.93,12.24-57.59,17.92,1.26-27.58,13.04-52.42,31.43-70.56,13.24,10.59,32.35,28.2,41.04,47.29.4.88.73,1.83.97,2.83-5.59.71-10.9,1.57-15.85,2.52Z"/>
      <path class="cls-1" d="M677.5,251.69v78.54c-5.52.15-10.87.46-16,.91-.4-2.19-1.04-4.29-1.92-6.23-9.33-20.51-28.66-38.81-42.67-50.19,16.8-13.44,37.75-21.86,60.6-23.03Z"/>
      <path class="cls-1" d="M706.45,324.91c-.86,1.88-1.48,3.89-1.88,6.01h-.02c-5.48-.42-10.81-.66-16-.73v-78.5c22.85,1.17,43.8,9.59,60.6,23.01-14.01,11.4-33.37,29.7-42.7,50.21Z"/>
      <path class="cls-1" d="M788.92,351.38c-25.83-10.83-50.56-16.73-73.3-19.4.24-.88.55-1.7.91-2.5,8.69-19.09,27.8-36.71,41.04-47.29,18.08,17.83,29.79,42.17,31.36,69.19Z"/>
      <path class="cls-1" d="M677.5,341.31v122.28c-25.68-1.33-48.95-11.78-66.63-28.2,14.63-17.94,47.87-61.84,50.96-93.19,5.02-.44,10.25-.75,15.67-.88Z"/>
      <path class="cls-1" d="M677.5,463.58h11.05c-1.83.09-3.67.13-5.52.13s-3.69-.04-5.52-.13Z"/>
      <path class="cls-1" d="M755.15,435.41c-17.68,16.4-40.93,26.85-66.61,28.18v-122.34c5.08.07,10.28.31,15.62.71,2.94,31.36,36.33,75.47,50.98,93.46Z"/>
      <path class="cls-1" d="M755.15,435.41l7.76-8c-2.43,2.81-5.02,5.48-7.76,8Z"/>
      <path class="cls-1" d="M788.95,363.41c-1.3,24.44-10.9,46.7-26.03,64-17.19-21.35-44.22-59.6-47.67-84.33,22.81,2.76,47.69,8.91,73.7,20.33Z"/>
    </g>
  </g>
</svg>